<svg width="89" height="18" viewBox="0 0 89 18" fill="none" xmlns="http://www.w3.org/2000/svg">
<path d="M40.1132 9.0617C40.1132 12.3757 38.063 13.9424 35.4968 13.9424H33.9286V11.9539H35.3746C36.9225 11.9539 37.9542 11.1305 37.9542 9.0617C37.9542 7.01295 36.9785 5.98844 35.3287 5.98844C33.7401 5.98844 32.6047 6.95268 32.6047 9.0215V17.337H30.4662V4.26104H32.6047V5.38599H32.9102C33.6231 4.44197 34.677 4.02001 35.7768 4.02001C38.1394 4.02001 40.1132 5.70722 40.1132 9.0617ZM26.0586 8.19786L24.6328 8.05724C23.5127 7.95683 22.922 7.65555 22.922 7.01278C22.922 6.24954 23.6757 5.80767 24.755 5.80767C25.8753 5.80767 26.5881 6.32987 26.6492 7.07304H28.7062C28.6248 5.18501 27.138 4.02001 24.7755 4.02001C22.3925 4.02001 20.7835 5.26534 20.7835 7.09315C20.7835 8.61968 21.7611 9.60385 23.9812 9.82482L25.4271 9.96539C26.303 10.0457 26.8936 10.2265 26.8936 11.05C26.8936 11.7932 26.3437 12.3355 24.8977 12.3355C23.5661 12.3355 22.9099 11.7396 22.6797 10.9408H20.4543C20.676 12.7667 22.2313 14.1834 24.8977 14.1834C27.4028 14.1834 29.0321 12.8778 29.0321 10.9496C29.0321 9.2423 27.8916 8.37864 26.0586 8.19786ZM48.3957 10.9408C48.0602 11.7007 47.2586 12.2753 46.121 12.2753C44.5528 12.2753 43.3919 11.271 43.3919 9.10173C43.3919 7.03289 44.4713 5.888 46.1414 5.888C47.6282 5.888 48.4836 6.77179 48.5651 8.09742H44.7157V9.62408H50.6629V8.61968C50.6629 5.82774 48.7891 4.02001 46.121 4.02001C43.6363 4.02001 41.2533 5.68715 41.2533 9.10173C41.2533 12.5162 43.6363 14.1834 46.121 14.1834C48.3937 14.1834 50.0144 12.8028 50.5178 10.9408H48.3957ZM14.6837 4.02001C12.3415 4.02001 10.59 5.22531 10.3863 7.07304H12.6877C12.8507 6.39029 13.482 5.88815 14.6837 5.88815C16.2316 5.88815 16.7408 6.6917 16.7408 7.67577V10.9898C15.865 11.9741 14.8467 12.4359 13.8283 12.4359C12.7692 12.4359 12.036 11.9338 12.036 11.0301C12.036 10.1662 12.6063 9.62408 13.7061 9.62408H15.4169V8.09742H13.645C11.201 8.09742 9.83641 9.30273 9.83641 11.1505C9.83641 12.8778 11.1602 14.1834 13.3395 14.1834C14.5615 14.1834 15.641 13.7015 16.4353 13.1188H16.7408V13.9424H18.8793V7.47477C18.8793 5.08457 17.2296 4.02001 14.6837 4.02001ZM0.173828 13.9424H2.31237V0.685791H0.173828V13.9424ZM9.15561 4.26104H6.54867L3.43254 8.29843V9.56382L6.63013 13.9424H9.27782L5.53034 8.92096L9.15561 4.26104ZM86.4636 4.26104L84.712 8.09742C84.2843 9.02151 83.8772 9.92519 83.7549 10.5279H83.4491C83.3269 9.92519 82.8994 9.04148 82.4717 8.11766L80.7201 4.26104H78.3575L82.4717 12.9582L80.435 17.337H82.7161L88.8262 4.26104H86.4636ZM77.8846 4.26104H75.2776L72.1614 8.29843V9.56382L75.359 13.9424H78.0068L74.2592 8.92096L77.8846 4.26104ZM64.4951 8.19786L63.0695 8.05724C61.9492 7.95683 61.3586 7.65555 61.3586 7.01278C61.3586 6.24954 62.1122 5.80767 63.1917 5.80767C64.3118 5.80767 65.0247 6.32987 65.0858 7.07304H67.1428C67.0613 5.18501 65.5746 4.02001 63.212 4.02001C60.8291 4.02001 59.2201 5.26534 59.2201 7.09315C59.2201 8.61968 60.1977 9.60385 62.4177 9.82482L63.8638 9.96539C64.7395 10.0457 65.3302 10.2265 65.3302 11.05C65.3302 11.7932 64.7803 12.3355 63.3342 12.3355C62.0026 12.3355 61.3465 11.7396 61.1162 10.9408H58.8908C59.1125 12.7667 60.6678 14.1834 63.3342 14.1834C65.8393 14.1834 67.4687 12.8778 67.4687 10.9496C67.4687 9.2423 66.3281 8.37864 64.4951 8.19786ZM68.9027 13.9424H71.0412V0.685791H68.9027V13.9424ZM54.8007 5.38599H54.4952V4.26104H52.3567V13.9424H54.4952V8.88076C54.4952 7.15341 55.3046 6.1491 56.8986 6.1491H58.2523V4.02001H57.4688C55.9898 4.02001 55.3612 4.57012 54.8007 5.38599Z" fill="white"/>
</svg>
