<svg width="26" height="31" viewBox="0 0 26 31" fill="none" xmlns="http://www.w3.org/2000/svg">
<g clip-path="url(#clip0)">
<path d="M21.2318 23.6474C21.2318 24.1772 20.7973 24.6107 20.2663 24.6107H6.07341C5.54239 24.6107 5.10791 24.1772 5.10791 23.6474V11.028C5.10791 10.4982 5.54239 10.0647 6.07341 10.0647H20.2663C20.7973 10.0647 21.2318 10.4982 21.2318 11.028V23.6474Z" fill="#85C808"/>
<path d="M21.2295 10.0647H5.08154V16.7115H21.2295V10.0647Z" fill="#85C808"/>
<path d="M25.5501 18.9273C25.5501 19.8666 24.7777 20.6372 23.8363 20.6372C22.895 20.6372 22.1226 19.8666 22.1226 18.9273V11.2209C22.1226 10.2816 22.895 9.51099 23.8363 9.51099C24.7777 9.51099 25.5501 10.2816 25.5501 11.2209V18.9273Z" fill="#85C808"/>
<path d="M4.21269 18.9276C4.21269 19.8668 3.44029 20.6375 2.49892 20.6375C1.55756 20.6375 0.785156 19.8668 0.785156 18.9276V11.2211C0.785156 10.2819 1.55756 9.51123 2.49892 9.51123C3.44029 9.51123 4.21269 10.2819 4.21269 11.2211V18.9276Z" fill="#85C808"/>
<path fill-rule="evenodd" clip-rule="evenodd" d="M5.15381 9.10146C5.15381 9.10146 5.32277 2.28604 13.1675 2.31012C20.9156 2.33421 21.1811 9.10146 21.1811 9.10146H5.15381ZM9.64346 6.59682C10.1767 6.59682 10.609 6.16553 10.609 5.63351C10.609 5.10149 10.1767 4.6702 9.64346 4.6702C9.11023 4.6702 8.67796 5.10149 8.67796 5.63351C8.67796 6.16553 9.11023 6.59682 9.64346 6.59682ZM17.6329 5.63351C17.6329 6.16553 17.2006 6.59682 16.6674 6.59682C16.1342 6.59682 15.7019 6.16553 15.7019 5.63351C15.7019 5.10149 16.1342 4.6702 16.6674 4.6702C17.2006 4.6702 17.6329 5.10149 17.6329 5.63351Z" fill="#85C808"/>
<path d="M9.3783 3.22565C9.40244 3.27382 9.49899 3.24973 9.5714 3.20157C9.64381 3.1534 9.69209 3.05707 9.66795 3.03299L8.17142 0.913705C8.14728 0.86554 8.05073 0.889623 7.97832 0.937788C7.9059 0.985954 7.85763 1.08228 7.88177 1.10637L9.3783 3.22565Z" fill="#85C808"/>
<path d="M16.9331 3.22565C16.909 3.27382 16.8124 3.24973 16.74 3.20157C16.6676 3.1534 16.6193 3.05707 16.6435 3.03299L18.1641 0.913705C18.1883 0.86554 18.2848 0.889623 18.3572 0.937788C18.4297 0.985954 18.4779 1.08228 18.4538 1.10637L16.9331 3.22565Z" fill="#85C808"/>
<path d="M18.1883 28.8978C18.1883 29.837 17.4159 30.6077 16.4745 30.6077C15.5331 30.6077 14.7607 29.837 14.7607 28.8978V21.1913C14.7607 20.2521 15.5331 19.4814 16.4745 19.4814C17.4159 19.4814 18.1883 20.2521 18.1883 21.1913V28.8978Z" fill="#85C808"/>
<path d="M11.5745 28.8978C11.5745 29.837 10.8021 30.6077 9.86074 30.6077C8.91937 30.6077 8.14697 29.837 8.14697 28.8978V21.1913C8.14697 20.2521 8.91937 19.4814 9.86074 19.4814C10.8021 19.4814 11.5745 20.2521 11.5745 21.1913V28.8978Z" fill="#85C808"/>
</g>
<defs>
<clipPath id="clip0">
<rect width="24.7651" height="29.7181" fill="white" transform="translate(0.785156 0.889404)"/>
</clipPath>
</defs>
</svg>
