<svg width="20" height="20" viewBox="0 0 20 20" fill="none" xmlns="http://www.w3.org/2000/svg">
<path d="M1.73923 0.365866C1.61583 0.468666 1.44443 0.681065 1.36223 0.838865L1.21143 1.11987V9.96247V18.8051L1.38283 19.1479C1.47883 19.3399 1.65703 19.5591 1.78723 19.6415C2.10942 19.8539 2.66462 19.8539 3.13082 19.6347C3.44622 19.4907 3.76822 19.1137 7.27802 14.7679C9.36862 12.1765 11.0822 10.0311 11.0822 9.99667C11.0822 9.96927 9.71122 8.24867 8.03182 6.18547C6.35242 4.11547 4.63182 1.99726 4.21362 1.46947C3.34302 0.400064 3.16482 0.269867 2.41082 0.215067C1.99283 0.180666 1.94503 0.194466 1.73923 0.365866Z" fill="#333333"/>
<path d="M5.44077 1.75724C5.59837 1.98344 11.6238 9.44144 11.6376 9.42784C11.6376 9.42084 12.1312 8.81764 12.7206 8.09124C13.3168 7.35784 13.8104 6.72704 13.831 6.67904C13.8516 6.63104 12.3914 5.74684 10.1088 4.41024C8.03857 3.20384 6.12617 2.08644 5.85197 1.92884C5.52997 1.73664 5.37917 1.67504 5.44077 1.75724Z" fill="#333333"/>
<path d="M13.7896 8.46121C13.1316 9.27701 12.5968 9.96241 12.6106 9.98301C12.6518 10.0996 14.996 12.9442 15.044 12.9442C15.1674 12.9442 18.0944 11.203 18.3 11.0044C18.965 10.36 18.9512 9.48261 18.252 8.89301C17.9916 8.66681 15.1468 6.98061 15.044 6.98061C15.0098 6.98061 14.4478 7.64541 13.7896 8.46121Z" fill="#333333"/>
<path d="M8.5394 14.3907C6.84639 16.4813 5.42739 18.2363 5.39299 18.2911C5.35179 18.3597 5.40679 18.3459 5.57119 18.2499C5.70139 18.1745 7.57959 17.0845 9.7458 15.8233C11.9118 14.5689 13.7284 13.4995 13.7832 13.4515C13.8724 13.3693 13.605 13.0197 11.7268 10.7233C11.624 10.5999 11.4596 10.7919 8.5394 14.3907Z" fill="#333333"/>
</svg>
