<svg width="30" height="30" viewBox="0 0 30 30" fill="none" xmlns="http://www.w3.org/2000/svg">
<path d="M15.0054 7.36084C10.7871 7.36084 7.37207 10.7796 7.37207 14.9942C7.37207 19.2125 10.7908 22.6276 15.0054 22.6276C19.2237 22.6276 22.6388 19.2088 22.6388 14.9942C22.6388 10.7759 19.22 7.36084 15.0054 7.36084ZM15.0054 19.9488C12.2672 19.9488 10.0508 17.7312 10.0508 14.9942C10.0508 12.2572 12.2684 10.0396 15.0054 10.0396C17.7424 10.0396 19.9601 12.2572 19.9601 14.9942C19.9613 17.7312 17.7437 19.9488 15.0054 19.9488Z" fill="white"/>
<path d="M21.1338 0.218448C18.3968 0.0907709 11.6175 0.0969688 8.878 0.218448C6.47072 0.331251 4.34731 0.912616 2.63544 2.62448C-0.225521 5.48545 0.140157 9.34056 0.140157 14.9943C0.140157 20.7807 -0.182136 24.5466 2.63544 27.3641C5.50756 30.235 9.41846 29.8594 15.0053 29.8594C20.7371 29.8594 22.7155 29.8631 24.7422 29.0785C27.4978 28.0087 29.5778 25.5457 29.7811 21.1216C29.9101 18.3833 29.9026 11.6053 29.7811 8.8658C29.5357 3.64342 26.733 0.476282 21.1338 0.218448ZM25.4661 25.4713C23.5906 27.3468 20.9888 27.1794 14.9693 27.1794C8.77139 27.1794 6.28602 27.2712 4.47251 25.4527C2.38381 23.3739 2.76188 20.0357 2.76188 14.9745C2.76188 8.12576 2.05904 3.19345 8.93254 2.84141C10.5118 2.78563 10.9766 2.76704 14.952 2.76704L15.0077 2.80422C21.6135 2.80422 26.7962 2.11253 27.1073 8.9848C27.178 10.5529 27.1941 11.0239 27.1941 14.9931C27.1929 21.1191 27.3094 23.6193 25.4661 25.4713Z" fill="white"/>
<path d="M22.941 8.84292C23.9261 8.84292 24.7248 8.0443 24.7248 7.05915C24.7248 6.07401 23.9261 5.27539 22.941 5.27539C21.9558 5.27539 21.1572 6.07401 21.1572 7.05915C21.1572 8.0443 21.9558 8.84292 22.941 8.84292Z" fill="white"/>
</svg>
