<svg width="10" height="12" viewBox="0 0 10 12" fill="none" xmlns="http://www.w3.org/2000/svg">
<g clip-path="url(#clip0)">
<path d="M8.25584 9.18944C8.25584 9.40338 8.0804 9.57842 7.86597 9.57842H2.13498C1.92056 9.57842 1.74512 9.40338 1.74512 9.18944V4.09381C1.74512 3.87987 1.92056 3.70483 2.13498 3.70483H7.86597C8.0804 3.70483 8.25584 3.87987 8.25584 4.09381V9.18944Z" fill="#F2F2F2"/>
<path d="M8.25533 3.70483H1.73486V6.38879H8.25533V3.70483Z" fill="#F2F2F2"/>
<path d="M10.0002 7.28359C10.0002 7.66285 9.68833 7.97403 9.30822 7.97403C8.9281 7.97403 8.61621 7.66285 8.61621 7.28359V4.17176C8.61621 3.79251 8.9281 3.48132 9.30822 3.48132C9.68833 3.48132 10.0002 3.79251 10.0002 4.17176V7.28359Z" fill="#F2F2F2"/>
<path d="M1.38402 7.28359C1.38402 7.66285 1.07213 7.97403 0.692008 7.97403C0.311891 7.97403 0 7.66285 0 7.28359V4.17176C0 3.79251 0.311891 3.48132 0.692008 3.48132C1.07213 3.48132 1.38402 3.79251 1.38402 4.17176V7.28359Z" fill="#F2F2F2"/>
<path fill-rule="evenodd" clip-rule="evenodd" d="M1.76416 3.31606C1.76416 3.31606 1.83239 0.564032 5.00003 0.573756C8.12868 0.583481 8.23589 3.31606 8.23589 3.31606H1.76416ZM3.57703 2.30469C3.79235 2.30469 3.9669 2.13054 3.9669 1.91571C3.9669 1.70089 3.79235 1.52673 3.57703 1.52673C3.36172 1.52673 3.18717 1.70089 3.18717 1.91571C3.18717 2.13054 3.36172 2.30469 3.57703 2.30469ZM6.80317 1.91571C6.80317 2.13054 6.62862 2.30469 6.41331 2.30469C6.19799 2.30469 6.02344 2.13054 6.02344 1.91571C6.02344 1.70089 6.19799 1.52673 6.41331 1.52673C6.62862 1.52673 6.80317 1.70089 6.80317 1.91571Z" fill="#F2F2F2"/>
<path d="M3.46962 0.943296C3.47936 0.962745 3.51835 0.953021 3.54759 0.933572C3.57683 0.914123 3.59632 0.875225 3.58658 0.8655L2.98229 0.00974683C2.97254 -0.00970211 2.93355 2.23625e-05 2.90431 0.0194713C2.87507 0.0389202 2.85558 0.0778181 2.86533 0.0875426L3.46962 0.943296Z" fill="#F2F2F2"/>
<path d="M6.52037 0.943296C6.51063 0.962745 6.47164 0.953021 6.4424 0.933572C6.41316 0.914123 6.39367 0.875225 6.40341 0.8655L7.01745 0.00974684C7.02719 -0.00970211 7.06618 2.23626e-05 7.09542 0.0194713C7.12466 0.0389203 7.14415 0.0778181 7.1344 0.0875426L6.52037 0.943296Z" fill="#F2F2F2"/>
<path d="M7.02708 11.3096C7.02708 11.6888 6.71519 12 6.33508 12C5.95496 12 5.64307 11.6888 5.64307 11.3096V8.19776C5.64307 7.81851 5.95496 7.50732 6.33508 7.50732C6.71519 7.50732 7.02708 7.81851 7.02708 8.19776V11.3096Z" fill="#F2F2F2"/>
<path d="M4.35667 11.3096C4.35667 11.6888 4.04478 12 3.66466 12C3.28455 12 2.97266 11.6888 2.97266 11.3096V8.19776C2.97266 7.81851 3.28455 7.50732 3.66466 7.50732C4.04478 7.50732 4.35667 7.81851 4.35667 8.19776V11.3096Z" fill="#F2F2F2"/>
</g>
<defs>
<clipPath id="clip0">
<rect width="10" height="12" fill="white"/>
</clipPath>
</defs>
</svg>
